:SAMPLES-PER-SECOND 30
:FULLY-SPECIFIED
:DEGREES
79
root  52.0757 37.1855 2.01167 -148.312 76.7943 -145.51
RightUpLeg  -21.312 3.08638 14.4741
RightLeg  29.1472 -0.512697 -6.17087
RightFoot  -5.1697 0.291391 -4.17472
RightToes  -1.74624e-010 -1.59028e-015 9.93923e-017
Spine  6.03061 -3.03989 2.66091
Spine1  8.62916 -4.18408 8.29661
HEad  -8.19635 -0.134322 5.62947
LeftShoulder1  9.93923e-017 0 1.22299e-017
LeftArm  -15.7765 28.368 -84.3365
LeftForeArm  5.12979 -3.82081 -6.35601
LeftHand  0.885374 6.32537 0.789637
RightShoulder  1.98785e-016 -4.96962e-017 1.55301e-017
RightArm  2.18195 -37.132 85.848
RightForeArm  -25.916 15.9553 -3.35528
RightHand  1.58952 -13.3181 -5.76809
LeftUpLeg  -10.9833 -12.6503 8.78536
LeftLeg  64.6131 -10.8878 2.87226
LeftFoot  13.9083 1.02489 -4.06944
LeftToes  2.64666e-010 -8.50449e-011 8.41596e-012
80
root  53.8072 37.7969 1.92965 -150.535 78.4558 -147.245
RightUpLeg  -15.8086 7.02219 13.6976
RightLeg  25.7712 -3.39679 -6.77071
RightFoot  -5.94676 0.106548 -1.69276
RightToes  -1.74624e-010 -1.59028e-015 9.93923e-017
Spine  5.42307 -1.89981 3.20988
Spine1  8.61644 -2.49425 5.75605
HEad  -8.36374 -1.27542 5.98469
LeftShoulder1  9.93923e-017 0 1.22299e-017
LeftArm  -14.8167 35.1117 -81.5718
LeftForeArm  17.4353 -3.47814 -5.61527
LeftHand  1.01853 7.23766 -1.05889
RightShoulder  1.98785e-016 -4.96962e-017 1.55301e-017
RightArm  20.0051 -32.0169 87.7007
RightForeArm  -46.3667 20.3099 -15.8826
RightHand  1.54813 -12.9821 -5.90355
LeftUpLeg  -15.6669 -13.8285 7.00643
LeftLeg  62.7132 -10.8677 2.48523
LeftFoot  12.378 1.05842 -4.46731
LeftToes  2.64666e-010 -8.50449e-011 8.41596e-012
81
root  55.5209 38.3493 1.80992 -152.917 80.6133 -149.493
RightUpLeg  -10.4344 9.80609 12.9531
RightLeg  21.898 -4.82424 -6.39327
RightFoot  -6.84115 0.0554214 -1.03573
RightToes  -1.74624e-010 -1.59028e-015 9.93923e-017
Spine  4.43821 -0.808452 4.14858
Spine1  8.83873 -0.71012 2.51471
HEad  -8.98472 -2.15042 6.40759
LeftShoulder1  9.93923e-017 0 1.22299e-017
LeftArm  -4.62078 43.0303 -77.5055
LeftForeArm  12.8016 -5.14351 -6.09837
LeftHand  1.07912 7.72422 -1.39064
RightShoulder  1.98785e-016 -4.96962e-017 1.55301e-017
RightArm  23.4509 -26.356 87.5573
RightForeArm  -47.4916 22.8369 -22.258
RightHand  1.52822 -12.956 -5.6332
LeftUpLeg  -19.6513 -13.9256 5.27829
LeftLeg  57.5731 -9.69249 3.65754
LeftFoot  10.8 1.07356 -4.84511
LeftToes  2.64666e-010 -8.50449e-011 8.41596e-012
82
root  57.213 38.783 1.65448 -155.381 82.51 -152.296
RightUpLeg  -5.80459 8.39015 12.1826
RightLeg  17.8075 -2.36017 -4.924
RightFoot  -7.02896 0.138063 -2.58911
RightToes  -1.74624e-010 -1.59028e-015 9.93923e-017
Spine  3.04932 0.121352 5.515
Spine1  8.98115 0.866033 -0.657858
HEad  -9.18258 -3.08322 6.52874
LeftShoulder1  9.93923e-017 0 1.22299e-017
LeftArm  10.5732 51.1944 -71.6196
LeftForeArm  -2.68223 -7.89021 -6.75725
LeftHand  1.05073 7.55479 -3.07968
RightShoulder  1.98785e-016 -4.96962e-017 1.55301e-017
RightArm  20.2472 -20.6398 86.4007
RightForeArm  -40.8693 26.7681 -24.725
RightHand  1.53789 -12.9855 -5.7248
LeftUpLeg  -23.1053 -13.4471 3.93324
LeftLeg  50.0555 -8.03736 4.5283
LeftFoot  8.7932 0.804269 -3.96034
LeftToes  2.64666e-010 -8.50449e-011 8.41596e-012
83
root  58.873 39.0692 1.48418 -153.47 84.2765 -150.712
RightUpLeg  -1.72448 5.51022 11.3154
RightLeg  14.2913 1.74051 -3.22274
RightFoot  -6.86598 0.17588 -3.2301
RightToes  -1.74624e-010 -1.59028e-015 9.93923e-017
Spine  1.71524 1.21085 7.18145
Spine1  9.23069 2.39507 -3.05721
HEad  -9.17503 -4.08451 6.16464
LeftShoulder1  9.93923e-017 0 1.22299e-017
LeftArm  18.8336 58.0401 -63.5753
LeftForeArm  -10.3239 -8.7105 -6.74854
LeftHand  1.01892 7.36075 -6.63142
RightShoulder  1.98785e-016 -4.96962e-017 1.55301e-017
RightArm  18.6709 -15.0708 84.7199
RightForeArm  -37.8863 30.1449 -27.3016
RightHand  1.55071 -12.9467 -6.03668
LeftUpLeg  -25.0877 -11.8658 3.1612
LeftLeg  40.3901 -7.8881 2.8729
LeftFoot  7.33686 0.635177 -3.36035
LeftToes  2.64666e-010 -8.50449e-011 8.41596e-012
84
root  60.4996 39.2199 1.31773 -141.144 86.2177 -138.383
RightUpLeg  2.33473 3.91865 10.4356
RightLeg  11.5356 5.23989 -1.89168
RightFoot  -7.0433 0.11586 -2.17814
RightToes  -1.74624e-010 -1.59028e-015 9.93923e-017
Spine  0.675474 2.52192 8.40714
Spine1  9.85779 3.89628 -4.35542
HEad  -9.30087 -4.88549 5.58252
LeftShoulder1  9.93923e-017 0 1.22299e-017
LeftArm  19.4169 62.8452 -54.7464
LeftForeArm  -6.73128 -8.80979 -5.73699
LeftHand  1.03357 7.67785 -9.72896
RightShoulder  1.98785e-016 -4.96962e-017 1.55301e-017
RightArm  17.9907 -9.30743 82.7794
RightForeArm  -36.9604 32.5883 -29.2317
RightHand  1.55954 -12.9598 -6.15313
LeftUpLeg  -25.0596 -9.13486 2.60162
LeftLeg  28.5872 -9.05205 0.414612
LeftFoot  7.35716 0.801769 -4.24755
LeftToes  2.64666e-010 -8.50449e-011 8.41596e-012
85
root  62.073 39.2424 1.15457 -110.63 87.721 -107.576
RightUpLeg  6.25892 3.00758 9.42976
RightLeg  9.61714 8.17286 -1.02892
RightFoot  -7.68617 0.0720143 -1.53507
RightToes  -1.74624e-010 -1.59028e-015 9.93923e-017
Spine  0.124115 3.64419 9.01751
Spine1  10.592 5.13813 -5.09958
HEad  -9.50883 -5.37885 5.12961
LeftShoulder1  9.93923e-017 0 1.22299e-017
LeftArm  19.5357 65.8456 -46.9986
LeftForeArm  -2.64414 -7.4905 -5.4468
LeftHand  1.05393 8.11362 -10.0445
RightShoulder  1.98785e-016 -4.96962e-017 1.55301e-017
RightArm  18.0385 -3.63929 81.1855
RightForeArm  -36.3373 33.7513 -30.2086
RightHand  1.57792 -13.0418 -6.25511
LeftUpLeg  -23.7044 -6.43179 1.93289
LeftLeg  16.0021 -8.5688 -0.274426
LeftFoot  8.12947 0.969068 -4.97368
LeftToes  2.64666e-010 -8.50449e-011 8.41596e-012
86
root  63.5985 39.1292 0.988193 -70.126 87.9715 -66.5857
RightUpLeg  9.66525 2.34081 8.54887
RightLeg  8.90773 9.96806 -0.655128
RightFoot  -8.78529 0.0651971 -1.7357
RightToes  -1.74624e-010 -1.59028e-015 9.93923e-017
Spine  0.17701 4.20777 9.64687
Spine1  11.1541 5.96575 -6.08013
HEad  -9.89627 -5.56219 4.92857
LeftShoulder1  9.93923e-017 0 1.22299e-017
LeftArm  18.2673 67.0568 -40.8192
LeftForeArm  1.09461 -4.52386 -5.73968
LeftHand  1.08009 8.27295 -8.21921
RightShoulder  1.98785e-016 -4.96962e-017 1.55301e-017
RightArm  17.9444 1.16448 80.2824
RightForeArm  -35.3557 33.9164 -30.4103
RightHand  1.61542 -13.1232 -6.67133
LeftUpLeg  -22.1956 -4.1828 0.94631
LeftLeg  5.80499 -6.52116 0.290877
LeftFoot  7.50554 0.734046 -3.83353
LeftToes  2.64666e-010 -8.50449e-011 8.41596e-012
87
root  65.1675 38.8928 0.822815 -53.2657 87.6581 -49.3287
RightUpLeg  12.4475 2.094 8.10254
RightLeg  9.32741 10.3858 -0.756346
RightFoot  -10.3213 0.0333207 -1.32525
RightToes  -1.74624e-010 -1.59028e-015 9.93923e-017
Spine  0.0684572 4.24873 10.3483
Spine1  11.9374 6.37296 -7.24308
HEad  -10.68 -5.42967 5.01149
LeftShoulder1  9.93923e-017 0 1.22299e-017
LeftArm  15.8986 66.7815 -36.9412
LeftForeArm  3.70719 -1.99366 -5.54949
LeftHand  1.11972 8.55675 -6.6891
RightShoulder  1.98785e-016 -4.96962e-017 1.55301e-017
RightArm  16.9902 4.45065 80.0274
RightForeArm  -34.5456 33.7921 -30.3641
RightHand  1.65926 -13.2064 -7.17442
LeftUpLeg  -21.5297 -3.14355 0.190835
LeftLeg  1.03723 -5.22503 0.734316
LeftFoot  5.33636 0.430444 -2.53138
LeftToes  2.64666e-010 -8.50449e-011 8.41596e-012
88
root  66.8866 38.5574 0.657827 -48.2482 87.7705 -44.4605
RightUpLeg  14.469 2.28374 7.65421
RightLeg  10.7742 10.3107 -0.947049
RightFoot  -12.1383 0.00140141 -0.149847
RightToes  -1.74624e-010 -1.59028e-015 9.93923e-017
Spine  -1.26633 4.09292 10.3736
Spine1  13.2436 6.45392 -8.01341
HEad  -11.6369 -5.22448 5.50057
LeftShoulder1  9.93923e-017 0 1.22299e-017
LeftArm  13.345 65.6292 -35.7182
LeftForeArm  4.35744 -1.5956 -4.84793
LeftHand  1.18878 9.34681 -6.44246
RightShoulder  1.98785e-016 -4.96962e-017 1.55301e-017
RightArm  15.3486 5.71332 80.2793
RightForeArm  -34.2189 33.9286 -30.4991
RightHand  1.68156 -13.2655 -7.38224
LeftUpLeg  -21.8626 -3.5513 -0.197394
LeftLeg  1.80752 -5.48103 0.786472
LeftFoot  4.78358 0.477112 -2.87294
LeftToes  2.64666e-010 -8.50449e-011 8.41596e-012
89
root  68.728 38.1674 0.475948 -31.4506 88.29 -28.3243
RightUpLeg  15.5034 2.76533 6.4092
RightLeg  13.6887 10.4218 -0.498417
RightFoot  -13.6729 0.00783944 1.12381
RightToes  -1.74624e-010 -1.59028e-015 9.93923e-017
Spine  -3.36779 3.98076 9.42383
Spine1  14.3962 6.38612 -8.41832
HEad  -12.3543 -5.33168 6.40807
LeftShoulder1  9.93923e-017 0 1.22299e-017
LeftArm  11.1422 63.9877 -37.062
LeftForeArm  2.92893 -1.5327 -4.77421
LeftHand  1.25077 10.1031 -6.53644
RightShoulder  1.98785e-016 -4.96962e-017 1.55301e-017
RightArm  13.7784 4.56542 80.9417
RightForeArm  -34.0914 34.3871 -30.8895
RightHand  1.68824 -13.2523 -7.52469
LeftUpLeg  -22.7297 -4.97397 -0.724903
LeftLeg  5.8532 -5.59716 0.715337
LeftFoot  7.64806 0.612056 -3.20131
LeftToes  2.64666e-010 -8.50449e-011 8.41596e-012
90
root  70.5471 37.8164 0.27896 15.2524 88.663 17.9023
RightUpLeg  15.3984 2.41291 3.79756
RightLeg  18.8218 11.2809 0.845178
RightFoot  -13.2346 0.00195858 3.21362
RightToes  -1.74624e-010 -1.59028e-015 9.93923e-017
Spine  -4.36618 3.7385 7.80142
Spine1  14.5417 6.26102 -9.02066
HEad  -12.816 -5.73622 7.28146
LeftShoulder1  9.93923e-017 0 1.22299e-017
LeftArm  7.99183 61.7514 -41.1103
LeftForeArm  1.71048 -1.66797 -5.05896
LeftHand  1.26315 10.1279 -6.13458
RightShoulder  1.98785e-016 -4.96962e-017 1.55301e-017
RightArm  12.8329 1.08784 81.9415
RightForeArm  -34.096 34.791 -31.2311
RightHand  1.7181 -13.236 -8.04867
LeftUpLeg  -23.8148 -8.14724 -1.45697
LeftLeg  11.8097 -3.26906 1.2331
LeftFoot  10.1763 0.379987 -1.66577
LeftToes  2.64666e-010 -8.50449e-011 8.41596e-012
91
root  72.2169 37.5899 0.0852064 66.4307 87.9114 69.2621
RightUpLeg  13.8176 -0.23478 0.103168
RightLeg  26.7189 13.64 2.349
RightFoot  -7.92996 -0.299481 6.4812
RightToes  -1.74624e-010 -1.59028e-015 9.93923e-017
Spine  -3.44344 3.32189 5.87263
Spine1  13.7729 5.96753 -9.82876
HEad  -13.1088 -5.98507 7.41043
LeftShoulder1  9.93923e-017 0 1.22299e-017
LeftArm  2.74686 58.505 -47.8904
LeftForeArm  1.09947 -1.81595 -5.29327
LeftHand  1.23082 9.66652 -5.8025
RightShoulder  1.98785e-016 -4.96962e-017 1.55301e-017
RightArm  12.7654 -4.0173 83.2172
RightForeArm  -34.6124 34.4734 -30.9263
RightHand  1.76788 -13.3241 -8.60502
LeftUpLeg  -24.3643 -11.5878 -2.82203
LeftLeg  18.2231 -0.567528 2.72504
LeftFoot  8.35839 -0.114114 0.758204
LeftToes  2.64666e-010 -8.50449e-011 8.41596e-012
